<svg id="Layer_1" enable-background="new 0 0 512 512" viewBox="0 0 512 512" xmlns="http://www.w3.org/2000/svg"><g id="Layer_2_00000164496783873059174870000016596279285918749114_"><g id="filter"><path d="m32.1 64.2h447.7c17.7 0 32.1 14.4 32.1 32.1s-14.4 32.1-32.1 32.1h-447.7c-17.7.1-32.1-14.3-32.1-32.1 0-17.7 14.4-32.1 32.1-32.1z"/><path d="m113.1 223.9h285.7c17.7 0 32.1 14.4 32.1 32.1s-14.4 32.1-32.1 32.1h-285.7c-17.7 0-32.1-14.4-32.1-32.1s14.4-32.1 32.1-32.1z"/><path d="m194.1 383.5h123.7c17.7 0 32.1 14.4 32.1 32.1s-14.4 32.1-32.1 32.1h-123.7c-17.7 0-32.1-14.4-32.1-32.1s14.4-32.1 32.1-32.1z"/></g></g></svg>